<svg width="20" height="20" viewBox="0 0 20 20" fill="none" xmlns="http://www.w3.org/2000/svg">
<path d="M5.83333 2.5V4.12493C5.40233 4.24513 4.97526 4.38433 4.55336 4.54254C3.78595 4.83032 3.20045 5.46494 2.97529 6.253L2.77375 6.95839C2.72238 7.1382 2.67465 7.31877 2.63057 7.5H17.3693C17.3252 7.31877 17.2775 7.1382 17.2261 6.95839L17.0246 6.253C16.7994 5.46494 16.2139 4.83032 15.4465 4.54254C15.0247 4.38435 14.5976 4.24515 14.1667 4.12496V2.5H12.5V3.75765C10.8444 3.48731 9.15556 3.4873 7.5 3.75763V2.5H5.83333Z" fill="#9EA0A5"/>
<path fill-rule="evenodd" clip-rule="evenodd" d="M17.67 9.16667H2.32985C2.10959 11.0177 2.25756 12.9017 2.77375 14.7084L2.80845 14.8299C3.13319 15.9665 4.03982 16.8434 5.18661 17.1301C8.34686 17.9201 11.653 17.9201 14.8133 17.1301C15.9601 16.8434 16.8667 15.9665 17.1914 14.8299L17.2261 14.7084C17.7423 12.9017 17.8903 11.0177 17.67 9.16667ZM5.625 11.1458C5.48977 11.2134 5.38011 11.3231 5.3125 11.4583C5.11578 11.8518 5.11578 12.3149 5.3125 12.7083C5.38011 12.8436 5.48977 12.9532 5.625 13.0208C6.01845 13.2176 6.48155 13.2176 6.875 13.0208C7.01023 12.9532 7.11988 12.8436 7.1875 12.7083C7.38422 12.3149 7.38422 11.8518 7.1875 11.4583C7.11988 11.3231 7.01023 11.2134 6.875 11.1458C6.48155 10.9491 6.01845 10.9491 5.625 11.1458ZM9.0625 11.4583C9.13011 11.3231 9.23977 11.2134 9.375 11.1458C9.76845 10.9491 10.2316 10.9491 10.625 11.1458C10.7602 11.2134 10.8699 11.3231 10.9375 11.4583C11.1342 11.8518 11.1342 12.3149 10.9375 12.7083C10.8699 12.8436 10.7602 12.9532 10.625 13.0208C10.2316 13.2176 9.76845 13.2176 9.375 13.0208C9.23977 12.9532 9.13011 12.8436 9.0625 12.7083C8.86578 12.3149 8.86578 11.8518 9.0625 11.4583ZM13.125 11.1458C12.9898 11.2134 12.8801 11.3231 12.8125 11.4583C12.6158 11.8518 12.6158 12.3149 12.8125 12.7083C12.8801 12.8436 12.9898 12.9532 13.125 13.0208C13.5184 13.2176 13.9816 13.2176 14.375 13.0208C14.5102 12.9532 14.6199 12.8436 14.6875 12.7083C14.8842 12.3149 14.8842 11.8518 14.6875 11.4583C14.6199 11.3231 14.5102 11.2134 14.375 11.1458C13.9816 10.9491 13.5184 10.9491 13.125 11.1458Z" fill="#9EA0A5"/>
</svg>
