<svg width="24" height="24" viewBox="0 0 24 24" fill="none" xmlns="http://www.w3.org/2000/svg">
<path d="M21.3965 12V18C21.3965 20.2091 19.6548 22 17.5063 22H5.83556C3.68703 22 1.94531 20.2091 1.94531 18V6C1.94531 3.79086 3.68703 2 5.83556 2H11.6709M15.2561 4.02275C15.2561 4.02275 15.2561 5.45305 16.6472 6.88334C18.0382 8.31364 19.4293 8.31364 19.4293 8.31364M8.90367 15.9896L11.8249 15.5605C12.2463 15.4986 12.6367 15.2978 12.9377 14.9884L20.8203 6.88334C21.5886 6.09341 21.5886 4.81268 20.8203 4.02275L19.4293 2.59245C18.661 1.80252 17.4154 1.80252 16.6472 2.59245L8.76456 10.6975C8.46358 11.0069 8.26834 11.4084 8.20814 11.8417L7.79083 14.8453C7.69809 15.5128 8.25451 16.0849 8.90367 15.9896Z" stroke="#28303F" stroke-width="1.5" stroke-linecap="round"/>
</svg>
