<svg width="24" height="24" viewBox="0 0 24 24" fill="none" xmlns="http://www.w3.org/2000/svg">
<path d="M21.3963 12V18C21.3963 20.2091 19.6546 22 17.5061 22H5.83537C3.68685 22 1.94513 20.2091 1.94513 18V6C1.94513 3.79086 3.68685 2 5.83537 2H11.6707M15.2559 4.02275C15.2559 4.02275 15.2559 5.45305 16.647 6.88334C18.0381 8.31364 19.4291 8.31364 19.4291 8.31364M8.90349 15.9896L11.8247 15.5605C12.2461 15.4986 12.6366 15.2978 12.9375 14.9884L20.8202 6.88334C21.5884 6.09341 21.5884 4.81268 20.8202 4.02275L19.4291 2.59245C18.6609 1.80252 17.4153 1.80252 16.647 2.59245L8.76438 10.6975C8.4634 11.0069 8.26816 11.4084 8.20796 11.8417L7.79064 14.8453C7.69791 15.5128 8.25433 16.0849 8.90349 15.9896Z" stroke="#28303F" stroke-width="1.5" stroke-linecap="round"/>
</svg>
