<svg width="50" height="51" viewBox="0 0 50 51" fill="none" xmlns="http://www.w3.org/2000/svg">
<rect width="49.638" height="51" rx="15" fill="#40AD00"/>
<path d="M19.517 24.6553C19.1908 24.8728 18.7825 24.9275 18.4105 24.8035C16.8931 24.2977 15.7023 23.1069 15.1965 21.5895C15.0725 21.2175 15.1272 20.8092 15.3447 20.483L15.4682 20.2977C15.7879 19.8182 16.1366 19.3602 16.5119 18.9261L15.2929 17.7071L16.7071 16.2929L17.9261 17.5119C18.3602 17.1366 18.8182 16.7879 19.2977 16.4682L19.483 16.3447C19.8092 16.1272 20.2175 16.0725 20.5895 16.1965C22.1069 16.7023 23.2977 17.8931 23.8035 19.4105C23.9275 19.7825 23.8728 20.1908 23.6553 20.517L23.5318 20.7023C23.2121 21.1818 22.8634 21.6398 22.4881 22.0739L27.9487 27.5345C28.4699 27.0761 29.0222 26.6519 29.6023 26.2651L29.7133 26.1911C29.8942 26.0705 30.1206 26.0402 30.3268 26.1089C32.0096 26.6699 33.3301 27.9904 33.891 29.6731C33.9598 29.8794 33.9295 30.1058 33.8089 30.2867L33.7348 30.3977C33.3481 30.9778 32.9239 31.5301 32.4655 32.0513L33.7071 33.2929L32.2929 34.7071L31.0513 33.4655C30.5301 33.9239 29.9778 34.3481 29.3977 34.7348L29.2867 34.8089C29.1058 34.9295 28.8794 34.9598 28.6731 34.891C26.9904 34.3301 25.6699 33.0096 25.1089 31.3268C25.0402 31.1206 25.0705 30.8942 25.1911 30.7133L25.2651 30.6023C25.6519 30.0222 26.0761 29.4699 26.5345 28.9487L21.0739 23.4881C20.6398 23.8634 20.1818 24.2121 19.7023 24.5318L19.517 24.6553Z" fill="white"/>
</svg>
