<svg width="40" height="40" viewBox="0 0 40 40" fill="none" xmlns="http://www.w3.org/2000/svg">
<rect x="1" y="1" width="38" height="38" rx="19" stroke="#DADADA" stroke-width="2"/>
<path d="M18 26H22M24.1804 30H15.8196C13.5109 30 11.6393 28.214 11.6393 26.0108V21.133C11.6393 20.4248 11.3445 19.7456 10.8197 19.2448C9.60381 18.0845 9.76187 16.162 11.1525 15.1969L17.5412 10.763C19.0071 9.74567 20.9929 9.74567 22.4588 10.763L28.8475 15.1969C30.2381 16.162 30.3962 18.0845 29.1803 19.2448C28.6555 19.7456 28.3607 20.4248 28.3607 21.133V26.0108C28.3607 28.214 26.4891 30 24.1804 30Z" stroke="#28303F" stroke-width="1.5" stroke-linecap="round"/>
</svg>
