<svg width="97" height="97" viewBox="0 0 97 97" fill="none" xmlns="http://www.w3.org/2000/svg">
<circle cx="48.5" cy="48.5" r="48.5" fill="#40AD00"/>
<path fill-rule="evenodd" clip-rule="evenodd" d="M29 24H30.5H65.5H67V25.5V39.875C67 40.7034 66.3284 41.375 65.5 41.375C64.6716 41.375 64 40.7034 64 39.875V27H32V70H64V59.0417C64 58.2132 64.6716 57.5417 65.5 57.5417C66.3284 57.5417 67 58.2132 67 59.0417V71.5V73H65.5H30.5H29V71.5V25.5V24ZM47 48.5C47 47.6716 47.6716 47 48.5 47H73.5637L70.3901 43.509C69.8328 42.896 69.878 41.9473 70.491 41.3901C71.104 40.8328 72.0527 40.878 72.6099 41.491L77.6099 46.991L78.5272 48L77.6099 49.009L72.6099 54.509C72.0527 55.122 71.104 55.1672 70.491 54.6099C69.878 54.0527 69.8328 53.104 70.3901 52.491L72.6546 50H48.5C47.6716 50 47 49.3284 47 48.5Z" fill="white"/>
</svg>
