<svg width="44" height="44" viewBox="0 0 44 44" fill="none" xmlns="http://www.w3.org/2000/svg">
<rect x="1" y="1" width="42" height="42" rx="21" fill="#F6F6F6"/>
<rect x="1" y="1" width="42" height="42" rx="21" stroke="#D1D1D1" stroke-width="2"/>
<path d="M11 12.375H12.878L13.6829 15.5833M13.6829 15.5833L16.3659 26.2777H30.3171L33 15.5833H13.6829ZM17.9757 30.0208C17.9757 30.9068 17.255 31.625 16.366 31.625C15.4769 31.625 14.7562 30.9068 14.7562 30.0208C14.7562 29.1349 15.4769 28.4167 16.366 28.4167C17.255 28.4167 17.9757 29.1349 17.9757 30.0208ZM31.9267 30.0208C31.9267 30.9068 31.206 31.625 30.3169 31.625C29.4279 31.625 28.7072 30.9068 28.7072 30.0208C28.7072 29.1349 29.4279 28.4167 30.3169 28.4167C31.206 28.4167 31.9267 29.1349 31.9267 30.0208Z" stroke="#BABABA" stroke-width="1.7" stroke-linecap="round" stroke-linejoin="round"/>
</svg>
