<svg width="149" height="130" viewBox="0 0 149 130" fill="none" xmlns="http://www.w3.org/2000/svg">
<path d="M17.1 68.95C15.6667 68.95 14.35 68.7333 13.15 68.3C11.9833 67.8333 10.9833 67.2333 10.15 66.5V60.25C10.8167 61.1167 11.6667 61.8167 12.7 62.35C13.7333 62.85 14.9 63.1 16.2 63.1C17.4667 63.1 18.6 62.8667 19.6 62.4C20.6 61.9333 21.4333 61.3167 22.1 60.55C22.8 59.7833 23.3333 58.9167 23.7 57.95C24.0667 56.9833 24.25 55.9833 24.25 54.95C24.25 53.85 24.05 52.8167 23.65 51.85C23.25 50.8833 22.7 50.0333 22 49.3C21.3 48.5333 20.4667 47.9333 19.5 47.5C18.5333 47.0667 17.4833 46.85 16.35 46.85C14.9833 46.85 13.7667 47.1333 12.7 47.7C11.6667 48.2333 10.8167 48.9333 10.15 49.8V43.6C11.35 42.6 12.6167 41.9333 13.95 41.6C15.2833 41.2333 16.4333 41.05 17.4 41.05C18.9333 41.05 20.4833 41.3333 22.05 41.9C23.6167 42.4667 25.0167 43.3333 26.25 44.5C27.5167 45.6333 28.5333 47.0667 29.3 48.8C30.1 50.5333 30.5 52.55 30.5 54.85C30.5 57.0833 30.1333 59.0833 29.4 60.85C28.7 62.5833 27.7333 64.05 26.5 65.25C25.2667 66.45 23.8333 67.3667 22.2 68C20.6 68.6333 18.9 68.95 17.1 68.95ZM7.6 32.7C8.3 33.3333 8.65 34.1167 8.65 35.05V65.9C8.65 66.7 8.33333 67.4167 7.7 68.05C7.1 68.65 6.36667 68.95 5.5 68.95C4.7 68.95 3.98333 68.6667 3.35 68.1C2.75 67.5333 2.41667 66.8 2.35 65.9V34.95C2.41667 34.0833 2.73333 33.3667 3.3 32.8C3.9 32.2 4.63333 31.9 5.5 31.9C6.3 31.9 7 32.1667 7.6 32.7ZM46.623 63.1C47.623 63 48.5397 62.7333 49.373 62.3C50.2397 61.8667 50.973 61.3 51.573 60.6C52.2064 59.9 52.7064 59.0833 53.073 58.15C53.4397 57.2167 53.623 56.2 53.623 55.1C53.623 54 53.4397 52.9833 53.073 52.05C52.7064 51.1167 52.2064 50.3 51.573 49.6C50.973 48.9 50.2397 48.3333 49.373 47.9C48.5397 47.4667 47.623 47.2 46.623 47.1V41.2C48.7897 41.3 50.6897 41.7833 52.323 42.65C53.9897 43.4833 55.3897 44.55 56.523 45.85C57.6564 47.15 58.5064 48.6167 59.073 50.25C59.6397 51.85 59.923 53.4667 59.923 55.1C59.923 56.7667 59.6397 58.4167 59.073 60.05C58.5064 61.65 57.6564 63.1 56.523 64.4C55.3897 65.7 53.9897 66.7667 52.323 67.6C50.6897 68.4333 48.7897 68.9 46.623 69V63.1ZM38.073 55.1C38.073 56.2 38.2564 57.2167 38.623 58.15C38.9897 59.0833 39.4897 59.9 40.123 60.6C40.7564 61.3 41.4897 61.8667 42.323 62.3C43.1897 62.7333 44.123 63 45.123 63.1V69C42.9564 68.9 41.0397 68.4333 39.373 67.6C37.7397 66.7667 36.3564 65.7 35.223 64.4C34.0897 63.1 33.2397 61.65 32.673 60.05C32.1064 58.4167 31.823 56.7667 31.823 55.1C31.823 53.4667 32.1064 51.85 32.673 50.25C33.2397 48.6167 34.0897 47.15 35.223 45.85C36.3564 44.55 37.7397 43.4833 39.373 42.65C41.0397 41.7833 42.9564 41.3 45.123 41.2V47.1C44.123 47.2 43.1897 47.4667 42.323 47.9C41.4897 48.3333 40.7564 48.9 40.123 49.6C39.4897 50.3 38.9897 51.1167 38.623 52.05C38.2564 52.9833 38.073 54 38.073 55.1ZM84.0559 35.05C84.0559 34.1833 84.3559 33.45 84.9559 32.85C85.5892 32.2167 86.3392 31.9 87.2059 31.9C88.0725 31.9 88.7892 32.2 89.3559 32.8C89.9559 33.3667 90.2892 34.0833 90.3559 34.95V65.9C90.2892 66.8 89.9392 67.5333 89.3059 68.1C88.7059 68.6667 88.0059 68.95 87.2059 68.95C86.3059 68.95 85.5559 68.65 84.9559 68.05C84.3559 67.4167 84.0559 66.6833 84.0559 65.85V35.05ZM68.4559 54.95C68.4559 55.9833 68.6225 56.9833 68.9559 57.95C69.3225 58.9167 69.8392 59.7833 70.5059 60.55C71.2059 61.3167 72.0559 61.9333 73.0559 62.4C74.0559 62.8667 75.2059 63.1 76.5059 63.1C77.8059 63.1 78.9725 62.85 80.0059 62.35C81.0392 61.8167 81.8892 61.1167 82.5559 60.25V66.5C81.6892 67.2333 80.6725 67.8333 79.5059 68.3C78.3392 68.7333 77.0392 68.95 75.6059 68.95C73.8059 68.95 72.0892 68.6333 70.4559 68C68.8559 67.3667 67.4392 66.45 66.2059 65.25C64.9725 64.05 63.9892 62.5833 63.2559 60.85C62.5559 59.0833 62.2059 57.0833 62.2059 54.85C62.2059 52.55 62.5892 50.5333 63.3559 48.8C64.1559 47.0667 65.1725 45.6333 66.4059 44.5C67.6725 43.3333 69.0725 42.4667 70.6059 41.9C72.1725 41.3333 73.7392 41.05 75.3059 41.05C76.2725 41.05 77.4225 41.2333 78.7559 41.6C80.0892 41.9333 81.3559 42.6 82.5559 43.6V49.8C81.8559 48.9333 80.9892 48.2333 79.9559 47.7C78.9225 47.1333 77.7225 46.85 76.3559 46.85C75.1892 46.85 74.1225 47.0667 73.1559 47.5C72.1892 47.9333 71.3559 48.5333 70.6559 49.3C69.9559 50.0333 69.4059 50.8833 69.0059 51.85C68.6392 52.8167 68.4559 53.85 68.4559 54.95ZM110.084 43.85L110.134 43.65C110.434 43.05 110.834 42.5833 111.334 42.25C111.834 41.8833 112.401 41.7 113.034 41.7C113.901 41.7 114.634 42.0167 115.234 42.65C115.834 43.25 116.134 43.9333 116.134 44.7V44.95C116.134 45.3167 116.051 45.7 115.884 46.1L103.984 76.65C103.751 77.2167 103.384 77.7167 102.884 78.15C102.384 78.5833 101.768 78.8 101.034 78.8C100.168 78.8 99.4344 78.5 98.8344 77.9C98.2344 77.3333 97.9344 76.6167 97.9344 75.75C97.9344 75.55 97.951 75.3667 97.9844 75.2C98.0177 75.0333 98.0677 74.8667 98.1344 74.7L110.084 43.85ZM92.5344 46.05L92.4344 45.85C92.3344 45.55 92.2844 45.2 92.2844 44.8C92.2844 43.9333 92.601 43.2 93.2344 42.6C93.8677 42 94.5844 41.7 95.3844 41.7C96.151 41.7 96.751 41.9167 97.1844 42.35C97.651 42.75 98.0344 43.2667 98.3344 43.9L103.234 57.25L100.134 65.45L92.5344 46.05ZM17.1 118.95C15.6667 118.95 14.35 118.733 13.15 118.3C11.9833 117.833 10.9833 117.233 10.15 116.5V110.25C10.8167 111.117 11.6667 111.817 12.7 112.35C13.7333 112.85 14.9 113.1 16.2 113.1C17.4667 113.1 18.6 112.867 19.6 112.4C20.6 111.933 21.4333 111.317 22.1 110.55C22.8 109.783 23.3333 108.917 23.7 107.95C24.0667 106.983 24.25 105.983 24.25 104.95C24.25 103.85 24.05 102.817 23.65 101.85C23.25 100.883 22.7 100.033 22 99.3C21.3 98.5333 20.4667 97.9333 19.5 97.5C18.5333 97.0667 17.4833 96.85 16.35 96.85C14.9833 96.85 13.7667 97.1333 12.7 97.7C11.6667 98.2333 10.8167 98.9333 10.15 99.8V93.6C11.35 92.6 12.6167 91.9333 13.95 91.6C15.2833 91.2333 16.4333 91.05 17.4 91.05C18.9333 91.05 20.4833 91.3333 22.05 91.9C23.6167 92.4667 25.0167 93.3333 26.25 94.5C27.5167 95.6333 28.5333 97.0667 29.3 98.8C30.1 100.533 30.5 102.55 30.5 104.85C30.5 107.083 30.1333 109.083 29.4 110.85C28.7 112.583 27.7333 114.05 26.5 115.25C25.2667 116.45 23.8333 117.367 22.2 118C20.6 118.633 18.9 118.95 17.1 118.95ZM7.6 82.7C8.3 83.3333 8.65 84.1167 8.65 85.05V115.9C8.65 116.7 8.33333 117.417 7.7 118.05C7.1 118.65 6.36667 118.95 5.5 118.95C4.7 118.95 3.98333 118.667 3.35 118.1C2.75 117.533 2.41667 116.8 2.35 115.9V84.95C2.41667 84.0833 2.73333 83.3667 3.3 82.8C3.9 82.2 4.63333 81.9 5.5 81.9C6.3 81.9 7 82.1667 7.6 82.7ZM57.673 94.05L57.623 115.95C57.5897 116.817 57.273 117.533 56.673 118.1C56.1064 118.667 55.3897 118.95 54.523 118.95C53.6564 118.95 52.923 118.667 52.323 118.1C51.7564 117.533 51.4397 116.833 51.373 116V94.05C51.4397 93.2167 51.773 92.5167 52.373 91.95C52.973 91.35 53.6897 91.05 54.523 91.05C55.3564 91.05 56.073 91.3333 56.673 91.9C57.273 92.4667 57.6064 93.1833 57.673 94.05ZM49.873 117C49.173 117.6 48.323 118.083 47.323 118.45C46.323 118.783 45.073 118.95 43.573 118.95C41.4064 118.95 39.6564 118.583 38.323 117.85C37.023 117.117 35.9897 116.2 35.223 115.1C34.4897 113.967 33.9897 112.75 33.723 111.45C33.4897 110.117 33.373 108.883 33.373 107.75V94.2C33.373 93.3333 33.673 92.6 34.273 92C34.873 91.3667 35.6064 91.05 36.473 91.05C37.3397 91.05 38.0564 91.35 38.623 91.95C39.223 92.5167 39.5564 93.2333 39.623 94.1V106.2C39.623 107.167 39.7064 108.083 39.873 108.95C40.073 109.783 40.3897 110.517 40.823 111.15C41.2564 111.75 41.8397 112.233 42.573 112.6C43.3397 112.933 44.273 113.1 45.373 113.1C46.4397 113.1 47.3397 112.95 48.073 112.65C48.8064 112.35 49.4064 111.917 49.873 111.35V117ZM83.0793 85.05C83.0793 84.1833 83.3793 83.45 83.9793 82.85C84.6126 82.2167 85.3626 81.9 86.2293 81.9C87.096 81.9 87.8126 82.2 88.3793 82.8C88.9793 83.3667 89.3126 84.0833 89.3793 84.95V115.9C89.3126 116.8 88.9626 117.533 88.3293 118.1C87.7293 118.667 87.0293 118.95 86.2293 118.95C85.3293 118.95 84.5793 118.65 83.9793 118.05C83.3793 117.417 83.0793 116.683 83.0793 115.85V85.05ZM67.4793 104.95C67.4793 105.983 67.646 106.983 67.9793 107.95C68.346 108.917 68.8626 109.783 69.5293 110.55C70.2293 111.317 71.0793 111.933 72.0793 112.4C73.0793 112.867 74.2293 113.1 75.5293 113.1C76.8293 113.1 77.996 112.85 79.0293 112.35C80.0626 111.817 80.9126 111.117 81.5793 110.25V116.5C80.7126 117.233 79.696 117.833 78.5293 118.3C77.3626 118.733 76.0626 118.95 74.6293 118.95C72.8293 118.95 71.1126 118.633 69.4793 118C67.8793 117.367 66.4626 116.45 65.2293 115.25C63.996 114.05 63.0126 112.583 62.2793 110.85C61.5793 109.083 61.2293 107.083 61.2293 104.85C61.2293 102.55 61.6126 100.533 62.3793 98.8C63.1793 97.0667 64.196 95.6333 65.4293 94.5C66.696 93.3333 68.096 92.4667 69.6293 91.9C71.196 91.3333 72.7626 91.05 74.3293 91.05C75.296 91.05 76.446 91.2333 77.7793 91.6C79.1126 91.9333 80.3793 92.6 81.5793 93.6V99.8C80.8793 98.9333 80.0126 98.2333 78.9793 97.7C77.946 97.1333 76.746 96.85 75.3793 96.85C74.2126 96.85 73.146 97.0667 72.1793 97.5C71.2126 97.9333 70.3793 98.5333 69.6793 99.3C68.9793 100.033 68.4293 100.883 68.0293 101.85C67.6626 102.817 67.4793 103.85 67.4793 104.95ZM115.808 85.05C115.808 84.1833 116.108 83.45 116.708 82.85C117.341 82.2167 118.091 81.9 118.958 81.9C119.824 81.9 120.541 82.2 121.108 82.8C121.708 83.3667 122.041 84.0833 122.108 84.95V115.9C122.041 116.8 121.691 117.533 121.058 118.1C120.458 118.667 119.758 118.95 118.958 118.95C118.058 118.95 117.308 118.65 116.708 118.05C116.108 117.417 115.808 116.683 115.808 115.85V85.05ZM100.208 104.95C100.208 105.983 100.374 106.983 100.708 107.95C101.074 108.917 101.591 109.783 102.258 110.55C102.958 111.317 103.808 111.933 104.808 112.4C105.808 112.867 106.958 113.1 108.258 113.1C109.558 113.1 110.724 112.85 111.758 112.35C112.791 111.817 113.641 111.117 114.308 110.25V116.5C113.441 117.233 112.424 117.833 111.258 118.3C110.091 118.733 108.791 118.95 107.358 118.95C105.558 118.95 103.841 118.633 102.208 118C100.608 117.367 99.1911 116.45 97.9578 115.25C96.7245 114.05 95.7411 112.583 95.0078 110.85C94.3078 109.083 93.9578 107.083 93.9578 104.85C93.9578 102.55 94.3411 100.533 95.1078 98.8C95.9078 97.0667 96.9245 95.6333 98.1578 94.5C99.4245 93.3333 100.824 92.4667 102.358 91.9C103.924 91.3333 105.491 91.05 107.058 91.05C108.024 91.05 109.174 91.2333 110.508 91.6C111.841 91.9333 113.108 92.6 114.308 93.6V99.8C113.608 98.9333 112.741 98.2333 111.708 97.7C110.674 97.1333 109.474 96.85 108.108 96.85C106.941 96.85 105.874 97.0667 104.908 97.5C103.941 97.9333 103.108 98.5333 102.408 99.3C101.708 100.033 101.158 100.883 100.758 101.85C100.391 102.817 100.208 103.85 100.208 104.95ZM141.836 93.85L141.886 93.65C142.186 93.05 142.586 92.5833 143.086 92.25C143.586 91.8833 144.153 91.7 144.786 91.7C145.653 91.7 146.386 92.0167 146.986 92.65C147.586 93.25 147.886 93.9333 147.886 94.7V94.95C147.886 95.3167 147.803 95.7 147.636 96.1L135.736 126.65C135.503 127.217 135.136 127.717 134.636 128.15C134.136 128.583 133.52 128.8 132.786 128.8C131.92 128.8 131.186 128.5 130.586 127.9C129.986 127.333 129.686 126.617 129.686 125.75C129.686 125.55 129.703 125.367 129.736 125.2C129.77 125.033 129.82 124.867 129.886 124.7L141.836 93.85ZM124.286 96.05L124.186 95.85C124.086 95.55 124.036 95.2 124.036 94.8C124.036 93.9333 124.353 93.2 124.986 92.6C125.62 92 126.336 91.7 127.136 91.7C127.903 91.7 128.503 91.9167 128.936 92.35C129.403 92.75 129.786 93.2667 130.086 93.9L134.986 107.25L131.886 115.45L124.286 96.05Z" fill="#40AD00"/>
<path d="M14.0078 1.95312V5.125H15.8262V6.02734H14.0078V9.21289H12.9277V1.95312H14.0078ZM10.0977 9.44531C12.5723 9.44531 14.1035 10.3066 14.1035 11.7559C14.1035 13.2324 12.5723 14.0801 10.0977 14.0801C7.60938 14.0801 6.06445 13.2324 6.06445 11.7559C6.06445 10.3066 7.60938 9.44531 10.0977 9.44531ZM10.0977 10.334C8.26562 10.3203 7.11719 10.8672 7.11719 11.7559C7.11719 12.6582 8.26562 13.2188 10.0977 13.2188C11.916 13.2188 13.0645 12.6582 13.0645 11.7559C13.0645 10.8672 11.916 10.3203 10.0977 10.334ZM10.4531 2.88281V3.77148H6.10547V7.33984C8.56641 7.32617 9.98828 7.25098 11.6152 6.91602L11.7246 7.80469C10.0293 8.14648 8.56641 8.21484 5.99609 8.21484H5.05273V2.88281H10.4531ZM26.207 1.9668V10.8809H25.1405V1.9668H26.207ZM26.5898 12.9453V13.8477H18.3593V10.0605H19.4257V12.9453H26.5898ZM20.4784 3.86719C20.4648 5.71289 21.7362 7.38086 23.5409 8.03711L22.9804 8.89844C21.5722 8.3584 20.4784 7.26465 19.9452 5.86328C19.4052 7.35352 18.2978 8.5498 16.8827 9.11719L16.2948 8.2832C18.1405 7.57227 19.3847 5.78125 19.3847 3.86719V2.65039H20.4784V3.86719ZM31.8299 2.8418C33.744 2.8418 35.0975 4.00391 35.0975 5.69922C35.0975 7.39453 33.744 8.55664 31.8299 8.55664C29.9159 8.55664 28.535 7.39453 28.5487 5.69922C28.535 4.00391 29.9159 2.8418 31.8299 2.8418ZM31.8299 3.78516C30.5311 3.78516 29.5877 4.56445 29.6014 5.69922C29.5877 6.83398 30.5311 7.61328 31.8299 7.61328C33.1151 7.61328 34.0448 6.83398 34.0448 5.69922C34.0448 4.56445 33.1151 3.78516 31.8299 3.78516ZM37.8182 1.95312V14.1348H36.7518V1.95312H37.8182ZM27.9198 10.5391C30.162 10.5391 33.2518 10.5254 35.9452 10.1289L36.0272 10.9219C33.2518 11.4414 30.2577 11.4551 28.0702 11.4551L27.9198 10.5391ZM52.0309 1.95312V6.90234H53.9997V7.80469H52.0309V14.1074H50.9645V1.95312H52.0309ZM48.8864 3.26562C48.8864 6.71094 47.2731 9.8418 43.3083 11.7969L42.7067 10.9492C45.8512 9.38379 47.5602 7.0459 47.8063 4.16797H43.2673V3.26562H48.8864ZM58.4195 4.26367C58.4195 5.84961 59.609 7.27148 61.4 7.85938L60.8941 8.70703C59.4928 8.24902 58.4332 7.27832 57.9137 6.05469C57.3873 7.44922 56.2662 8.53613 54.8102 9.0625L54.2633 8.20117C56.0816 7.58594 57.3531 6.01367 57.3668 4.26367V3.74414H54.5914V2.85547H61.1539V3.74414H58.4195V4.26367ZM63.8063 1.95312V5.05664H65.6383V5.95898H63.8063V9.29492H62.7398V1.95312H63.8063ZM59.9098 9.62305C62.4117 9.62305 63.9156 10.4434 63.9156 11.8379C63.9156 13.2598 62.4117 14.0801 59.9098 14.0801C57.4078 14.0801 55.8766 13.2598 55.8766 11.8379C55.8766 10.4434 57.4078 9.62305 59.9098 9.62305ZM59.9098 10.4844C58.0777 10.4844 56.943 10.9902 56.9566 11.8379C56.943 12.7129 58.0777 13.2188 59.9098 13.2188C61.7555 13.2188 62.8766 12.7129 62.8766 11.8379C62.8766 10.9902 61.7555 10.4844 59.9098 10.4844ZM78.4838 1.95312V6.90234H80.4526V7.80469H78.4838V14.1074H77.4174V1.95312H78.4838ZM75.3393 3.26562C75.3393 6.71094 73.726 9.8418 69.7612 11.7969L69.1596 10.9492C72.3041 9.38379 74.0131 7.0459 74.2592 4.16797H69.7202V3.26562H75.3393ZM90.3822 1.95312V6.9707H92.2279V7.87305H90.3822V14.1074H89.3021V1.95312H90.3822ZM84.4486 3.2793C84.4349 6.17773 83.7787 9.02148 81.5775 11.3594L80.7162 10.7441C82.555 8.86426 83.2933 6.60156 83.4369 4.18164H81.099V3.2793H84.4486ZM87.7845 3.2793C87.7709 6.16406 87.347 9.51367 85.0775 12.166L84.2025 11.5645C86.1029 9.41797 86.6771 6.71777 86.7728 4.18164H84.8314V3.2793H87.7845ZM103.552 8.13281V9.02148H98.6165V11.5098H97.5364V9.02148H92.4231V8.13281H103.552ZM102.308 12.9316V13.8477H93.8587V10.293H94.9388V12.9316H102.308ZM97.9739 2.26758C100.572 2.28125 102.253 3.21094 102.253 4.71484C102.253 6.21875 100.572 7.13477 97.9739 7.13477C95.3763 7.13477 93.6809 6.21875 93.6809 4.71484C93.6809 3.21094 95.3763 2.28125 97.9739 2.26758ZM97.9739 3.14258C96.0872 3.14258 94.8157 3.74414 94.8294 4.71484C94.8157 5.6582 96.0872 6.25977 97.9739 6.25977C99.8606 6.25977 101.118 5.6582 101.118 4.71484C101.118 3.74414 99.8606 3.14258 97.9739 3.14258ZM117.245 1.9668V10.9492H116.179V1.9668H117.245ZM117.628 12.9453V13.8477H109.398V10.1152H110.464V12.9453H117.628ZM111.626 4.79688C111.626 6.41016 112.925 7.83203 114.743 8.39258L114.21 9.25391C112.781 8.7959 111.653 7.8252 111.107 6.56055C110.573 7.9209 109.452 8.97363 108.003 9.47266L107.456 8.625C109.275 8.03711 110.56 6.50586 110.56 4.79688V4.46875H107.757V3.60742H110.56V2.02148H111.64V3.60742H114.415V4.46875H111.626V4.79688ZM128.501 2.74609V3.8125C128.501 4.96777 128.501 6.21875 128.159 7.96875H129.964V8.85742H124.946V14.1348H123.866V8.85742H118.89V7.96875H127.065C127.435 6.21875 127.435 4.94043 127.435 3.8125V3.63477H120.284V2.74609H128.501ZM132.565 12.084L131.499 15.8027H130.487L131.239 12.084H132.565Z" fill="black"/>
</svg>
