<svg width="50" height="51" viewBox="0 0 50 51" fill="none" xmlns="http://www.w3.org/2000/svg">
<rect width="49.638" height="51" rx="15" fill="#40AD00"/>
<path d="M19.5171 24.6554C19.1909 24.8729 18.7825 24.9275 18.4106 24.8036C16.8931 24.2977 15.7024 23.107 15.1965 21.5895C15.0726 21.2176 15.1273 20.8093 15.3447 20.4831L15.4683 20.2977C15.7879 19.8182 16.1366 19.3602 16.5119 18.9262L15.293 17.7072L16.7072 16.293L17.9262 17.5119C18.3602 17.1366 18.8182 16.7879 19.2977 16.4683L19.4831 16.3447C19.8093 16.1273 20.2176 16.0726 20.5895 16.1965C22.107 16.7024 23.2977 17.8931 23.8036 19.4106C23.9275 19.7825 23.8729 20.1909 23.6554 20.5171L23.5318 20.7024C23.2122 21.1819 22.8635 21.6399 22.4882 22.074L27.9488 27.5346C28.47 27.0761 29.0223 26.6519 29.6023 26.2652L29.7134 26.1912C29.8943 26.0706 30.1207 26.0403 30.3269 26.109C32.0097 26.6699 33.3302 27.9904 33.8911 29.6732C33.9599 29.8794 33.9295 30.1059 33.8089 30.2867L33.7349 30.3978C33.3482 30.9779 32.924 31.5301 32.4656 32.0513L33.7072 33.2929L32.293 34.7072L31.0513 33.4655C30.5301 33.924 29.9779 34.3482 29.3978 34.7349L29.2867 34.8089C29.1059 34.9295 28.8794 34.9599 28.6732 34.8911C26.9904 34.3302 25.6699 33.0097 25.109 31.3269C25.0403 31.1207 25.0706 30.8943 25.1912 30.7134L25.2652 30.6023C25.6519 30.0223 26.0761 29.47 26.5346 28.9488L21.074 23.4882C20.6399 23.8635 20.1819 24.2122 19.7024 24.5318L19.5171 24.6554Z" fill="white"/>
</svg>
