<svg width="146" height="98" viewBox="0 0 146 98" fill="none" xmlns="http://www.w3.org/2000/svg">
<path d="M15.1 37.95C13.6667 37.95 12.35 37.7333 11.15 37.3C9.98333 36.8333 8.98333 36.2333 8.15 35.5V29.25C8.81667 30.1167 9.66667 30.8167 10.7 31.35C11.7333 31.85 12.9 32.1 14.2 32.1C15.4667 32.1 16.6 31.8667 17.6 31.4C18.6 30.9333 19.4333 30.3167 20.1 29.55C20.8 28.7833 21.3333 27.9167 21.7 26.95C22.0667 25.9833 22.25 24.9833 22.25 23.95C22.25 22.85 22.05 21.8167 21.65 20.85C21.25 19.8833 20.7 19.0333 20 18.3C19.3 17.5333 18.4667 16.9333 17.5 16.5C16.5333 16.0667 15.4833 15.85 14.35 15.85C12.9833 15.85 11.7667 16.1333 10.7 16.7C9.66667 17.2333 8.81667 17.9333 8.15 18.8V12.6C9.35 11.6 10.6167 10.9333 11.95 10.6C13.2833 10.2333 14.4333 10.05 15.4 10.05C16.9333 10.05 18.4833 10.3333 20.05 10.9C21.6167 11.4667 23.0167 12.3333 24.25 13.5C25.5167 14.6333 26.5333 16.0667 27.3 17.8C28.1 19.5333 28.5 21.55 28.5 23.85C28.5 26.0833 28.1333 28.0833 27.4 29.85C26.7 31.5833 25.7333 33.05 24.5 34.25C23.2667 35.45 21.8333 36.3667 20.2 37C18.6 37.6333 16.9 37.95 15.1 37.95ZM5.6 1.7C6.3 2.33333 6.65 3.11667 6.65 4.05V34.9C6.65 35.7 6.33333 36.4167 5.7 37.05C5.1 37.65 4.36667 37.95 3.5 37.95C2.7 37.95 1.98333 37.6667 1.35 37.1C0.75 36.5333 0.416667 35.8 0.35 34.9V3.95C0.416667 3.08333 0.733333 2.36667 1.3 1.8C1.9 1.2 2.63333 0.899998 3.5 0.899998C4.3 0.899998 5 1.16667 5.6 1.7ZM44.623 32.1C45.623 32 46.5397 31.7333 47.373 31.3C48.2397 30.8667 48.973 30.3 49.573 29.6C50.2064 28.9 50.7064 28.0833 51.073 27.15C51.4397 26.2167 51.623 25.2 51.623 24.1C51.623 23 51.4397 21.9833 51.073 21.05C50.7064 20.1167 50.2064 19.3 49.573 18.6C48.973 17.9 48.2397 17.3333 47.373 16.9C46.5397 16.4667 45.623 16.2 44.623 16.1V10.2C46.7897 10.3 48.6897 10.7833 50.323 11.65C51.9897 12.4833 53.3897 13.55 54.523 14.85C55.6564 16.15 56.5064 17.6167 57.073 19.25C57.6397 20.85 57.923 22.4667 57.923 24.1C57.923 25.7667 57.6397 27.4167 57.073 29.05C56.5064 30.65 55.6564 32.1 54.523 33.4C53.3897 34.7 51.9897 35.7667 50.323 36.6C48.6897 37.4333 46.7897 37.9 44.623 38V32.1ZM36.073 24.1C36.073 25.2 36.2564 26.2167 36.623 27.15C36.9897 28.0833 37.4897 28.9 38.123 29.6C38.7564 30.3 39.4897 30.8667 40.323 31.3C41.1897 31.7333 42.123 32 43.123 32.1V38C40.9564 37.9 39.0397 37.4333 37.373 36.6C35.7397 35.7667 34.3564 34.7 33.223 33.4C32.0897 32.1 31.2397 30.65 30.673 29.05C30.1064 27.4167 29.823 25.7667 29.823 24.1C29.823 22.4667 30.1064 20.85 30.673 19.25C31.2397 17.6167 32.0897 16.15 33.223 14.85C34.3564 13.55 35.7397 12.4833 37.373 11.65C39.0397 10.7833 40.9564 10.3 43.123 10.2V16.1C42.123 16.2 41.1897 16.4667 40.323 16.9C39.4897 17.3333 38.7564 17.9 38.123 18.6C37.4897 19.3 36.9897 20.1167 36.623 21.05C36.2564 21.9833 36.073 23 36.073 24.1ZM82.0559 4.05C82.0559 3.18333 82.3559 2.45 82.9559 1.85C83.5892 1.21666 84.3392 0.899998 85.2059 0.899998C86.0725 0.899998 86.7892 1.2 87.3559 1.8C87.9559 2.36667 88.2892 3.08333 88.3559 3.95V34.9C88.2892 35.8 87.9392 36.5333 87.3059 37.1C86.7059 37.6667 86.0059 37.95 85.2059 37.95C84.3059 37.95 83.5559 37.65 82.9559 37.05C82.3559 36.4167 82.0559 35.6833 82.0559 34.85V4.05ZM66.4559 23.95C66.4559 24.9833 66.6225 25.9833 66.9559 26.95C67.3225 27.9167 67.8392 28.7833 68.5059 29.55C69.2059 30.3167 70.0559 30.9333 71.0559 31.4C72.0559 31.8667 73.2059 32.1 74.5059 32.1C75.8059 32.1 76.9725 31.85 78.0059 31.35C79.0392 30.8167 79.8892 30.1167 80.5559 29.25V35.5C79.6892 36.2333 78.6725 36.8333 77.5059 37.3C76.3392 37.7333 75.0392 37.95 73.6059 37.95C71.8059 37.95 70.0892 37.6333 68.4559 37C66.8559 36.3667 65.4392 35.45 64.2059 34.25C62.9725 33.05 61.9892 31.5833 61.2559 29.85C60.5559 28.0833 60.2059 26.0833 60.2059 23.85C60.2059 21.55 60.5892 19.5333 61.3559 17.8C62.1559 16.0667 63.1725 14.6333 64.4059 13.5C65.6725 12.3333 67.0725 11.4667 68.6059 10.9C70.1725 10.3333 71.7392 10.05 73.3059 10.05C74.2725 10.05 75.4225 10.2333 76.7559 10.6C78.0892 10.9333 79.3559 11.6 80.5559 12.6V18.8C79.8559 17.9333 78.9892 17.2333 77.9559 16.7C76.9225 16.1333 75.7225 15.85 74.3559 15.85C73.1892 15.85 72.1225 16.0667 71.1559 16.5C70.1892 16.9333 69.3559 17.5333 68.6559 18.3C67.9559 19.0333 67.4059 19.8833 67.0059 20.85C66.6392 21.8167 66.4559 22.85 66.4559 23.95ZM108.084 12.85L108.134 12.65C108.434 12.05 108.834 11.5833 109.334 11.25C109.834 10.8833 110.401 10.7 111.034 10.7C111.901 10.7 112.634 11.0167 113.234 11.65C113.834 12.25 114.134 12.9333 114.134 13.7V13.95C114.134 14.3167 114.051 14.7 113.884 15.1L101.984 45.65C101.751 46.2167 101.384 46.7167 100.884 47.15C100.384 47.5833 99.7677 47.8 99.0344 47.8C98.1677 47.8 97.4344 47.5 96.8344 46.9C96.2344 46.3333 95.9344 45.6167 95.9344 44.75C95.9344 44.55 95.951 44.3667 95.9844 44.2C96.0177 44.0333 96.0677 43.8667 96.1344 43.7L108.084 12.85ZM90.5344 15.05L90.4344 14.85C90.3344 14.55 90.2844 14.2 90.2844 13.8C90.2844 12.9333 90.601 12.2 91.2344 11.6C91.8677 11 92.5844 10.7 93.3844 10.7C94.151 10.7 94.751 10.9167 95.1844 11.35C95.651 11.75 96.0344 12.2667 96.3344 12.9L101.234 26.25L98.1344 34.45L90.5344 15.05ZM15.1 87.95C13.6667 87.95 12.35 87.7333 11.15 87.3C9.98333 86.8333 8.98333 86.2333 8.15 85.5V79.25C8.81667 80.1167 9.66667 80.8167 10.7 81.35C11.7333 81.85 12.9 82.1 14.2 82.1C15.4667 82.1 16.6 81.8667 17.6 81.4C18.6 80.9333 19.4333 80.3167 20.1 79.55C20.8 78.7833 21.3333 77.9167 21.7 76.95C22.0667 75.9833 22.25 74.9833 22.25 73.95C22.25 72.85 22.05 71.8167 21.65 70.85C21.25 69.8833 20.7 69.0333 20 68.3C19.3 67.5333 18.4667 66.9333 17.5 66.5C16.5333 66.0667 15.4833 65.85 14.35 65.85C12.9833 65.85 11.7667 66.1333 10.7 66.7C9.66667 67.2333 8.81667 67.9333 8.15 68.8V62.6C9.35 61.6 10.6167 60.9333 11.95 60.6C13.2833 60.2333 14.4333 60.05 15.4 60.05C16.9333 60.05 18.4833 60.3333 20.05 60.9C21.6167 61.4667 23.0167 62.3333 24.25 63.5C25.5167 64.6333 26.5333 66.0667 27.3 67.8C28.1 69.5333 28.5 71.55 28.5 73.85C28.5 76.0833 28.1333 78.0833 27.4 79.85C26.7 81.5833 25.7333 83.05 24.5 84.25C23.2667 85.45 21.8333 86.3667 20.2 87C18.6 87.6333 16.9 87.95 15.1 87.95ZM5.6 51.7C6.3 52.3333 6.65 53.1167 6.65 54.05V84.9C6.65 85.7 6.33333 86.4167 5.7 87.05C5.1 87.65 4.36667 87.95 3.5 87.95C2.7 87.95 1.98333 87.6667 1.35 87.1C0.75 86.5333 0.416667 85.8 0.35 84.9V53.95C0.416667 53.0833 0.733333 52.3667 1.3 51.8C1.9 51.2 2.63333 50.9 3.5 50.9C4.3 50.9 5 51.1667 5.6 51.7ZM55.673 63.05L55.623 84.95C55.5897 85.8167 55.273 86.5333 54.673 87.1C54.1064 87.6667 53.3897 87.95 52.523 87.95C51.6564 87.95 50.923 87.6667 50.323 87.1C49.7564 86.5333 49.4397 85.8333 49.373 85V63.05C49.4397 62.2167 49.773 61.5167 50.373 60.95C50.973 60.35 51.6897 60.05 52.523 60.05C53.3564 60.05 54.073 60.3333 54.673 60.9C55.273 61.4667 55.6064 62.1833 55.673 63.05ZM47.873 86C47.173 86.6 46.323 87.0833 45.323 87.45C44.323 87.7833 43.073 87.95 41.573 87.95C39.4064 87.95 37.6564 87.5833 36.323 86.85C35.023 86.1167 33.9897 85.2 33.223 84.1C32.4897 82.9667 31.9897 81.75 31.723 80.45C31.4897 79.1167 31.373 77.8833 31.373 76.75V63.2C31.373 62.3333 31.673 61.6 32.273 61C32.873 60.3667 33.6064 60.05 34.473 60.05C35.3397 60.05 36.0564 60.35 36.623 60.95C37.223 61.5167 37.5564 62.2333 37.623 63.1V75.2C37.623 76.1667 37.7064 77.0833 37.873 77.95C38.073 78.7833 38.3897 79.5167 38.823 80.15C39.2564 80.75 39.8397 81.2333 40.573 81.6C41.3397 81.9333 42.273 82.1 43.373 82.1C44.4397 82.1 45.3397 81.95 46.073 81.65C46.8064 81.35 47.4064 80.9167 47.873 80.35V86ZM81.0793 54.05C81.0793 53.1833 81.3793 52.45 81.9793 51.85C82.6126 51.2167 83.3626 50.9 84.2293 50.9C85.096 50.9 85.8126 51.2 86.3793 51.8C86.9793 52.3667 87.3126 53.0833 87.3793 53.95V84.9C87.3126 85.8 86.9626 86.5333 86.3293 87.1C85.7293 87.6667 85.0293 87.95 84.2293 87.95C83.3293 87.95 82.5793 87.65 81.9793 87.05C81.3793 86.4167 81.0793 85.6833 81.0793 84.85V54.05ZM65.4793 73.95C65.4793 74.9833 65.646 75.9833 65.9793 76.95C66.346 77.9167 66.8626 78.7833 67.5293 79.55C68.2293 80.3167 69.0793 80.9333 70.0793 81.4C71.0793 81.8667 72.2293 82.1 73.5293 82.1C74.8293 82.1 75.996 81.85 77.0293 81.35C78.0626 80.8167 78.9126 80.1167 79.5793 79.25V85.5C78.7126 86.2333 77.696 86.8333 76.5293 87.3C75.3626 87.7333 74.0626 87.95 72.6293 87.95C70.8293 87.95 69.1126 87.6333 67.4793 87C65.8793 86.3667 64.4626 85.45 63.2293 84.25C61.996 83.05 61.0126 81.5833 60.2793 79.85C59.5793 78.0833 59.2293 76.0833 59.2293 73.85C59.2293 71.55 59.6126 69.5333 60.3793 67.8C61.1793 66.0667 62.196 64.6333 63.4293 63.5C64.696 62.3333 66.096 61.4667 67.6293 60.9C69.196 60.3333 70.7626 60.05 72.3293 60.05C73.296 60.05 74.446 60.2333 75.7793 60.6C77.1126 60.9333 78.3793 61.6 79.5793 62.6V68.8C78.8793 67.9333 78.0126 67.2333 76.9793 66.7C75.946 66.1333 74.746 65.85 73.3793 65.85C72.2126 65.85 71.146 66.0667 70.1793 66.5C69.2126 66.9333 68.3793 67.5333 67.6793 68.3C66.9793 69.0333 66.4293 69.8833 66.0293 70.85C65.6626 71.8167 65.4793 72.85 65.4793 73.95ZM113.808 54.05C113.808 53.1833 114.108 52.45 114.708 51.85C115.341 51.2167 116.091 50.9 116.958 50.9C117.824 50.9 118.541 51.2 119.108 51.8C119.708 52.3667 120.041 53.0833 120.108 53.95V84.9C120.041 85.8 119.691 86.5333 119.058 87.1C118.458 87.6667 117.758 87.95 116.958 87.95C116.058 87.95 115.308 87.65 114.708 87.05C114.108 86.4167 113.808 85.6833 113.808 84.85V54.05ZM98.2078 73.95C98.2078 74.9833 98.3745 75.9833 98.7078 76.95C99.0745 77.9167 99.5911 78.7833 100.258 79.55C100.958 80.3167 101.808 80.9333 102.808 81.4C103.808 81.8667 104.958 82.1 106.258 82.1C107.558 82.1 108.724 81.85 109.758 81.35C110.791 80.8167 111.641 80.1167 112.308 79.25V85.5C111.441 86.2333 110.424 86.8333 109.258 87.3C108.091 87.7333 106.791 87.95 105.358 87.95C103.558 87.95 101.841 87.6333 100.208 87C98.6078 86.3667 97.1911 85.45 95.9578 84.25C94.7245 83.05 93.7411 81.5833 93.0078 79.85C92.3078 78.0833 91.9578 76.0833 91.9578 73.85C91.9578 71.55 92.3411 69.5333 93.1078 67.8C93.9078 66.0667 94.9245 64.6333 96.1578 63.5C97.4245 62.3333 98.8245 61.4667 100.358 60.9C101.924 60.3333 103.491 60.05 105.058 60.05C106.024 60.05 107.174 60.2333 108.508 60.6C109.841 60.9333 111.108 61.6 112.308 62.6V68.8C111.608 67.9333 110.741 67.2333 109.708 66.7C108.674 66.1333 107.474 65.85 106.108 65.85C104.941 65.85 103.874 66.0667 102.908 66.5C101.941 66.9333 101.108 67.5333 100.408 68.3C99.7078 69.0333 99.1578 69.8833 98.7578 70.85C98.3911 71.8167 98.2078 72.85 98.2078 73.95ZM139.836 62.85L139.886 62.65C140.186 62.05 140.586 61.5833 141.086 61.25C141.586 60.8833 142.153 60.7 142.786 60.7C143.653 60.7 144.386 61.0167 144.986 61.65C145.586 62.25 145.886 62.9333 145.886 63.7V63.95C145.886 64.3167 145.803 64.7 145.636 65.1L133.736 95.65C133.503 96.2167 133.136 96.7167 132.636 97.15C132.136 97.5833 131.52 97.8 130.786 97.8C129.92 97.8 129.186 97.5 128.586 96.9C127.986 96.3333 127.686 95.6167 127.686 94.75C127.686 94.55 127.703 94.3667 127.736 94.2C127.77 94.0333 127.82 93.8667 127.886 93.7L139.836 62.85ZM122.286 65.05L122.186 64.85C122.086 64.55 122.036 64.2 122.036 63.8C122.036 62.9333 122.353 62.2 122.986 61.6C123.62 61 124.336 60.7 125.136 60.7C125.903 60.7 126.503 60.9167 126.936 61.35C127.403 61.75 127.786 62.2667 128.086 62.9L132.986 76.25L129.886 84.45L122.286 65.05Z" fill="#40AD00"/>
</svg>
